<svg xmlns="http://www.w3.org/2000/svg" xmlns:xlink="http://www.w3.org/1999/xlink" viewBox="0 0 38.1 69">
    <defs>
        <style>
            .cls-1{isolation:isolate;}.cls-10,.cls-11,.cls-12,.cls-13,.cls-14,.cls-15,.cls-16,.cls-17,.cls-18,.cls-2,.cls-3,.cls-4,.cls-5,.cls-6,.cls-7,.cls-8,.cls-9{fill-rule:evenodd;}.cls-2{fill:url(#b_4);}.cls-3{fill:url(#b_2);}.cls-4{fill:url(#b_2-2);}.cls-5{fill:url(#radial-gradient);}.cls-6{fill:url(#b_2-3);}.cls-7{fill:url(#b_2-4);}.cls-8{fill:url(#radial-gradient-2);}.cls-9{fill:url(#b_2-5);}.cls-10{fill:url(#b_2-6);}.cls-11{fill:url(#b_4-2);}.cls-12{fill:url(#b_4-3);}.cls-13{fill:url(#b_4-4);}.cls-14{fill:url(#radial-gradient-3);}.cls-15{fill:url(#radial-gradient-4);}.cls-16{fill:url(#radial-gradient-5);}.cls-17,.cls-18{mix-blend-mode:screen;}.cls-17{fill:url(#White_Black);}.cls-18{fill:url(#White_Black-2);}.cls-19{fill:#0b6eff;}
        </style>
        <radialGradient id="b_4" cx="21.107" cy="12.195" r="26.789"
                        gradientTransform="translate(10.041 35.763) scale(1.051 1.089)" gradientUnits="userSpaceOnUse">
            <stop offset="0" stop-color="#4ff"/>
            <stop offset="1" stop-color="#0053ff"/>
        </radialGradient>
        <radialGradient id="b_2" cx="23.079" cy="-17.18" r="10.067"
                        gradientTransform="translate(10.041 35.763) scale(1.051 1.089)" gradientUnits="userSpaceOnUse">
            <stop offset="0" stop-color="#006ee0"/>
            <stop offset="0.415" stop-color="#1043cc"/>
            <stop offset="1" stop-color="#00121d"/>
        </radialGradient>
        <radialGradient id="b_2-2" cx="22.79" cy="14.448" r="11.539" xlink:href="#b_2"/>
        <radialGradient id="radial-gradient" cx="24.001" cy="12.526" r="20.211"
                        gradientTransform="translate(10.041 35.763) scale(1.051 1.089)" gradientUnits="userSpaceOnUse">
            <stop offset="0" stop-color="#fff"/>
            <stop offset="1" stop-color="#666"/>
        </radialGradient>
        <radialGradient id="b_2-3" cx="15.08" cy="16.796" r="6.707" xlink:href="#b_2"/>
        <radialGradient id="b_2-4" cx="15.645" cy="-8.324" r="12.715" xlink:href="#b_2"/>
        <radialGradient id="radial-gradient-2" cx="17.141" cy="16.121" r="15.042" xlink:href="#radial-gradient"/>
        <radialGradient id="b_2-5" cx="9.759" cy="-6.61" r="10.563" xlink:href="#b_2"/>
        <radialGradient id="b_2-6" cx="20.4" cy="-1.599" r="8.538" xlink:href="#b_2"/>
        <radialGradient id="b_4-2" cx="28.148" cy="16.741" r="16.019" xlink:href="#b_4"/>
        <radialGradient id="b_4-3" cx="24.294" cy="0.448" r="5.344" xlink:href="#b_4"/>
        <radialGradient id="b_4-4" cx="20.628" cy="-12.258" r="12.255" xlink:href="#b_4"/>
        <radialGradient id="radial-gradient-3" cx="12.892" cy="-3.547" r="12.054" xlink:href="#radial-gradient"/>
        <radialGradient id="radial-gradient-4" cx="18.13" cy="22.137" r="7.563" xlink:href="#radial-gradient"/>
        <radialGradient id="radial-gradient-5" cx="6.124" cy="-3.863" r="10.586" xlink:href="#radial-gradient"/>
        <linearGradient id="White_Black" x1="7.921" y1="33.262" x2="16.714" y2="35.938" gradientUnits="userSpaceOnUse">
            <stop offset="0" stop-color="#fff"/>
            <stop offset="1"/>
        </linearGradient>
        <linearGradient id="White_Black-2" x1="45.736" y1="60.577" x2="27.157" y2="42.077" xlink:href="#White_Black"/>
    </defs>
    <title>logo (9)</title>
    <g class="cls-1">
        <g id="Слой_1" data-name="Слой 1">
            <path id="_Path_" data-name="&lt;Path&gt;" class="cls-2"
                  d="M38.357,42.284a64.475,64.475,0,0,0-8.465-6.9c5.273,9.622,13.856,24.878.327,28.95A18.629,18.629,0,0,0,47.29,46.974,17.525,17.525,0,0,0,42.4,33.523c-7.46-7.477-14.5-16.6-11.353-27.5-3.812,6.483-3.613,12.191-2.257,17.6,2.3,9.113,8.548,12.214,9.565,18.661h0Z"
                  transform="translate(-10.244 -3.373)"/>
            <path id="_Path_2" data-name="&lt;Path&gt;" class="cls-3"
                  d="M42.4,33.523c-7.46-7.477-14.5-16.6-11.353-27.5a23.756,23.756,0,0,0-2.362,5.392c-1.053,7.343,6.033,14.687,13.715,22.1h0Z"
                  transform="translate(-10.244 -3.373)"/>
            <path id="_Path_3" data-name="&lt;Path&gt;" class="cls-4"
                  d="M32.873,37.534c-0.865-.667-1.836-1.357-2.982-2.145,5.273,9.622,13.856,24.878.327,28.95,4.583-1.054,7.811-3.223,8.816-6.6,1.544-5.186-1.508-14.287-6.162-20.2h0Z"
                  transform="translate(-10.244 -3.373)"/>
            <path id="_Path_4" data-name="&lt;Path&gt;" class="cls-5"
                  d="M33.189,54.341c-0.69-4.884-4.057-11.318-6.466-18.347-3.286-9.585-3.484-22.733,2.432-28.417-0.093.073-.2,0.158-0.292,0.242-4.431,4.011-7.939,13.657-6.9,22.66,1.169,10.143,3.274,12.76,5.227,20.261,1.707,6.543.421,12.966-4.513,12.615,6.758,1.927,11.482-2.157,10.511-9.016h0Z"
                  transform="translate(-10.244 -3.373)"/>
            <path id="_Path_5" data-name="&lt;Path&gt;" class="cls-6"
                  d="M25.18,44.272c0.666,1.926,1.345,3.914,2.011,6.471,1.707,6.543.421,12.966-4.513,12.615a12.4,12.4,0,0,0,2.829.473C32.569,62,27.39,50.2,25.18,44.272h0Z"
                  transform="translate(-10.244 -3.373)"/>
            <path id="_Path_6" data-name="&lt;Path&gt;" class="cls-7"
                  d="M30.535,45.822c-1.216-3.066-2.631-6.374-3.812-9.828-3.286-9.585-3.484-22.733,2.432-28.417-0.093.073-.2,0.158-0.292,0.242-2.549,2.314-4.794,6.5-6.045,11.354C21.2,27.706,24.642,33.85,30.535,45.822h0Z"
                  transform="translate(-10.244 -3.373)"/>
            <path id="_Path_7" data-name="&lt;Path&gt;" class="cls-8"
                  d="M24.2,55.371c-0.012-5.344-3.11-9.767-4.478-15.959C17.533,29.56,18.433,20.46,24.01,12.765c-8.956,9.767-13.937,21.763-13.762,31.652,0.129,7.331,2.093,11.633,6.3,15.353,4.607,3.151,7.647.57,7.647-4.4h0Z"
                  transform="translate(-10.244 -3.373)"/>
            <path id="_Path_8" data-name="&lt;Path&gt;" class="cls-9"
                  d="M21.216,44.368a39.449,39.449,0,0,1-1.5-4.956C17.533,29.56,18.433,20.46,24.01,12.765A57.338,57.338,0,0,0,17.9,20.7c-3.215,8.01.058,16.274,3.32,23.666h0Z"
                  transform="translate(-10.244 -3.373)"/>
            <path id="_Path_9" data-name="&lt;Path&gt;" class="cls-10"
                  d="M35.784,39.945s2.362,2.157,2.572,2.339c-0.865-5.5-5.53-8.567-8.313-15,1.415,4.508,5.741,11.161,5.741,12.663h0Z"
                  transform="translate(-10.244 -3.373)"/>
            <path id="_Path_10" data-name="&lt;Path&gt;" class="cls-11"
                  d="M38.719,58.073c0.608-1.842.643-4.18,0.012-7.392-1.017-5.162-3.075-8.846-5.858-13.148,3.449,4.484,6.314,9.827,6.781,15.668,0.491,6.338-2.3,8.87-7.062,10.506,3.215-1.284,5.238-2.957,6.127-5.635h0Z"
                  transform="translate(-10.244 -3.373)"/>
            <path id="_Path_11" data-name="&lt;Path&gt;" class="cls-12"
                  d="M38.357,42.284c-0.164-4.823-5.624-9.173-8.313-15,2.292,5.308,7.331,11.548,8.313,15h0Z"
                  transform="translate(-10.244 -3.373)"/>
            <path id="_Path_12" data-name="&lt;Path&gt;" class="cls-13"
                  d="M28.687,11.42c-0.094,9.355,7.974,15.874,13.715,22.1-5.94-5.162-14.943-13.318-13.715-22.1h0Z"
                  transform="translate(-10.244 -3.373)"/>
            <path id="_Path_13" data-name="&lt;Path&gt;" class="cls-14"
                  d="M22.818,19.175c-0.83,10.652,2.584,15.208,6.746,24.406l0.971,2.242c-1.333-2.412-1.006-1.769-2.233-4.156-4.151-8.095-7-13.16-5.484-22.491h0Z"
                  transform="translate(-10.244 -3.373)"/>
            <path id="_Path_14" data-name="&lt;Path&gt;" class="cls-15"
                  d="M25.507,63.83c6.384-2.836,2.2-11.875.491-17.038l-0.818-2.52c1.707,3.865,8.219,17.946.327,19.558h0Z"
                  transform="translate(-10.244 -3.373)"/>
            <path id="_Path_15" data-name="&lt;Path&gt;" class="cls-16"
                  d="M17.9,20.7c-2.479,9.731-.082,14.663,3.32,23.666a52.455,52.455,0,0,1-2.537-5.611c-2.619-6.847-3.239-11.1-.783-18.056h0Z"
                  transform="translate(-10.244 -3.373)"/>
            <path id="_Compound_Path_" data-name="&lt;Compound Path&gt;" class="cls-17"
                  d="M16.468,23.938c-3.425,6.168-5.9,13.439-5.776,20.479,0.071,3.878.643,7.719,2.724,11.039a17.417,17.417,0,0,0,3.4,3.938c1.38,0.945,3.368,1.842,4.957.9,1.567-.945,1.976-3.2,1.976-4.92-0.012-3.781-1.684-7.343-2.946-10.809-0.445-.921-0.9-1.83-1.333-2.751-0.444-.945-0.83-1.915-1.2-2.884-2.023-5.283-3.087-9.44-1.8-14.99h0ZM35.2,40.03a28.358,28.358,0,0,1,4.887,13.136c0.211,2.678-.093,5.453-1.836,7.574a8.337,8.337,0,0,1-1.227,1.2,18.186,18.186,0,0,0,9.822-15A17.042,17.042,0,0,0,42.11,33.862a77.731,77.731,0,0,1-7.682-7.4C31.786,23.453,29.2,19.72,28.4,15.637a24.486,24.486,0,0,0,.83,7.865,22.21,22.21,0,0,0,1.216,3.587,49,49,0,0,0,5.063,7.8c1.5,2.108,3.2,4.665,3.285,7.38l0.036,1.054L35.492,40.3c-0.093-.1-0.2-0.182-0.292-0.267h0Zm-5.063,5.986c-0.386-.69-0.772-1.381-1.146-2.072s-0.725-1.381-1.076-2.072c-1.018-1.975-2.058-3.95-2.993-5.962a35.047,35.047,0,0,1-2.1-5.574,23.7,23.7,0,0,1-.6-2.787,26.074,26.074,0,0,0,.187,2.872,59.467,59.467,0,0,0,1.251,7.355c0.444,1.818.994,3.575,1.59,5.332,0.117,0.327.222,0.666,0.339,0.994a64.665,64.665,0,0,1,3.2,8.349c0.947,3.308,1.871,8.276-.736,10.639a6.142,6.142,0,0,0,2.818-1.6c1.847-1.842,2.233-4.556,1.883-7.077a23.9,23.9,0,0,0-.97-3.938c-0.491-1.5-1.064-2.981-1.649-4.46h0Z"
                  transform="translate(-10.244 -3.373)"/>
            <path id="_Compound_Path_2" data-name="&lt;Compound Path&gt;" class="cls-18"
                  d="M16.468,23.938c-3.425,6.168-5.9,13.439-5.776,20.479,0.071,3.878.643,7.719,2.724,11.039a17.417,17.417,0,0,0,3.4,3.938c1.38,0.945,3.368,1.842,4.957.9,1.567-.945,1.976-3.2,1.976-4.92-0.012-3.781-1.684-7.343-2.946-10.809-0.445-.921-0.9-1.83-1.333-2.751-0.444-.945-0.83-1.915-1.2-2.884-2.023-5.283-3.087-9.44-1.8-14.99h0Zm30.26,19.5a30.625,30.625,0,0,1-6.6,10.579c-0.011-.279-0.023-0.57-0.047-0.848A28.358,28.358,0,0,0,35.2,40.03c0.094,0.085.2,0.17,0.292,0.267l3.333,3.029-0.036-1.054C38.708,39.557,37,37,35.5,34.892a49,49,0,0,1-5.063-7.8A22.21,22.21,0,0,1,29.225,23.5a24.486,24.486,0,0,1-.83-7.865c0.806,4.084,3.391,7.816,6.033,10.821a77.731,77.731,0,0,0,7.682,7.4,16.835,16.835,0,0,1,4.619,9.573h0ZM31.949,60.061A28.928,28.928,0,0,1,29.3,61.212c0.97-2.581.245-6.18-.5-8.761a64.665,64.665,0,0,0-3.2-8.349c-0.117-.327-0.222-0.666-0.339-0.994-0.6-1.757-1.146-3.514-1.59-5.332a59.467,59.467,0,0,1-1.251-7.355,26.074,26.074,0,0,1-.187-2.872,23.7,23.7,0,0,0,.6,2.787,35.047,35.047,0,0,0,2.1,5.574c0.935,2.012,1.976,3.987,2.993,5.962,0.35,0.691.7,1.394,1.076,2.072s0.76,1.382,1.146,2.072c0.585,1.479,1.157,2.957,1.649,4.46a23.9,23.9,0,0,1,.97,3.938,9.227,9.227,0,0,1-.807,5.647h0Z"
                  transform="translate(-10.244 -3.373)"/>
            <g id="_Group_" data-name="&lt;Group&gt;">
                <path id="_Compound_Path_3" data-name="&lt;Compound Path&gt;" class="cls-19"
                      d="M10.293,72.416V68.3c0-.11.006-0.225,0.018-0.342a0.862,0.862,0,0,1,.1-0.334,0.611,0.611,0,0,1,.153-0.173,0.329,0.329,0,0,1,.205-0.072h2.25v1.252h-1.55a0.659,0.659,0,0,0-.1.007,0.109,0.109,0,0,0-.08.064,0.278,0.278,0,0,0-.023.115c0,0.048,0,.094,0,0.137v3.46H10.293Z"
                      transform="translate(-10.244 -3.373)"/>
                <path id="_Compound_Path_4" data-name="&lt;Compound Path&gt;" class="cls-19"
                      d="M13.493,67.935a1.8,1.8,0,0,1,.082-0.251,0.6,0.6,0,0,1,.125-0.194,0.538,0.538,0,0,1,.192-0.123,0.846,0.846,0,0,1,.292-0.043,1.137,1.137,0,0,1,.209.019,0.472,0.472,0,0,1,.19.079,0.6,0.6,0,0,1,.164.183,1.2,1.2,0,0,1,.127.331l1.119,4.481H14.966L14.728,71.38H13.64L13.4,72.416H12.375Zm0.38,2.295H14.5l-0.272-1.273c-0.006-.019-0.013-0.042-0.02-0.068a0.024,0.024,0,1,0-.039,0c-0.007.026-.014,0.05-0.02,0.068Z"
                      transform="translate(-10.244 -3.373)"/>
                <path id="_Compound_Path_5" data-name="&lt;Compound Path&gt;" class="cls-19"
                      d="M16.08,71.164h1.356a1.317,1.317,0,0,0,.207-0.011,0.168,0.168,0,0,0,.1-0.047,0.256,0.256,0,0,0,.076-0.147,1.087,1.087,0,0,0,.015-0.176,1.37,1.37,0,0,0-.011-0.147,0.27,0.27,0,0,0-.071-0.154,0.178,0.178,0,0,0-.108-0.055,1.473,1.473,0,0,0-.2-0.011h-1.3V69.323h1.283c0.057,0,.116,0,0.175-0.008a0.164,0.164,0,0,0,.136-0.086,0.3,0.3,0,0,0,.048-0.141c0.005-.055.008-0.1,0.008-0.147a0.9,0.9,0,0,0-.013-0.158,0.178,0.178,0,0,0-.069-0.114,0.271,0.271,0,0,0-.08-0.025,1.081,1.081,0,0,0-.192-0.011H16.1V67.381h1.676c0.069,0,.14,0,0.214,0a0.815,0.815,0,0,1,.216.036,0.625,0.625,0,0,1,.378.313,1.068,1.068,0,0,1,.095.233,1.881,1.881,0,0,1,.052.26q0.018,0.133.022,0.272c0,0.094,0,.184,0,0.271a3.764,3.764,0,0,1-.026.449,0.968,0.968,0,0,1-.142.406,0.747,0.747,0,0,1-.093.115,0.412,0.412,0,0,1-.179.108v0.028a0.57,0.57,0,0,1,.1.011,0.352,0.352,0,0,1,.117.047,0.426,0.426,0,0,1,.116.111,0.749,0.749,0,0,1,.1.2,1.488,1.488,0,0,1,.078.4c0.009,0.139.013,0.278,0.013,0.417,0,0.091,0,.188-0.007.291a2.437,2.437,0,0,1-.032.306,1.627,1.627,0,0,1-.078.292,0.842,0.842,0,0,1-.143.248,0.551,0.551,0,0,1-.192.147,0.864,0.864,0,0,1-.22.064,1.24,1.24,0,0,1-.222.015c-0.072,0-.135,0-0.19,0H16.08V71.164Z"
                      transform="translate(-10.244 -3.373)"/>
                <path id="_Compound_Path_6" data-name="&lt;Compound Path&gt;" class="cls-19"
                      d="M19.267,67.381h0.976v5.035H19.267V67.381Zm2.164,5.035-0.916-1.949c-0.038-.081-0.076-0.179-0.117-0.291a1,1,0,0,1-.06-0.335,1.038,1.038,0,0,1,.045-0.295,2.781,2.781,0,0,1,.093-0.266l0.812-1.9h1.158L21.4,69.46a1.145,1.145,0,0,0-.105.252,0.617,0.617,0,0,0-.02.122,0.577,0.577,0,0,0,.056.244c0.037,0.082.072,0.151,0.1,0.209l1.175,2.129H21.431Z"
                      transform="translate(-10.244 -3.373)"/>
                <path id="_Compound_Path_7" data-name="&lt;Compound Path&gt;" class="cls-19"
                      d="M24.095,67.323c0.115,0,.233,0,0.354.011a1.693,1.693,0,0,1,.356.062,1.2,1.2,0,0,1,.333.154,0.971,0.971,0,0,1,.279.292,1.551,1.551,0,0,1,.19.438,3.775,3.775,0,0,1,.1.525,5.446,5.446,0,0,1,.041.557q0.007,0.284.007,0.536c0,0.168,0,.346-0.007.532a5.43,5.43,0,0,1-.041.554,3.775,3.775,0,0,1-.1.525,1.682,1.682,0,0,1-.19.446,0.979,0.979,0,0,1-.279.291,1.2,1.2,0,0,1-.333.154,1.578,1.578,0,0,1-.358.062c-0.122.007-.24,0.011-0.352,0.011s-0.229,0-.352-0.011a1.578,1.578,0,0,1-.358-0.062,1.2,1.2,0,0,1-.333-0.154,0.979,0.979,0,0,1-.279-0.291,1.567,1.567,0,0,1-.192-0.446,4,4,0,0,1-.1-0.525,5.165,5.165,0,0,1-.041-0.554c0-.187-0.007-0.364-0.007-0.532s0-.347.007-0.536a5.182,5.182,0,0,1,.041-0.557,4,4,0,0,1,.1-0.525,1.45,1.45,0,0,1,.192-0.438,0.971,0.971,0,0,1,.279-0.292,1.2,1.2,0,0,1,.333-0.154,1.693,1.693,0,0,1,.356-0.062C23.862,67.327,23.98,67.323,24.095,67.323ZM23.434,69.9c0,0.2.007,0.38,0.02,0.536a1.5,1.5,0,0,0,.093.421,0.786,0.786,0,0,0,.106.2,0.392,0.392,0,0,0,.125.111,0.415,0.415,0,0,0,.147.047,1.182,1.182,0,0,0,.17.011,1.224,1.224,0,0,0,.175-0.011,0.391,0.391,0,0,0,.145-0.047,0.382,0.382,0,0,0,.121-0.111,0.979,0.979,0,0,0,.108-0.2,1.379,1.379,0,0,0,.1-0.429c0.01-.15.015-0.327,0.015-0.528,0-.11,0-0.209,0-0.295s0-.166-0.011-0.241a1.435,1.435,0,0,0-.032-0.212,1.514,1.514,0,0,0-.067-0.209,0.551,0.551,0,0,0-.229-0.306,0.758,0.758,0,0,0-.32-0.061,1.32,1.32,0,0,0-.172.011,0.416,0.416,0,0,0-.147.05,0.442,0.442,0,0,0-.125.112,0.783,0.783,0,0,0-.1.193,1.369,1.369,0,0,0-.1.421Q23.434,69.582,23.434,69.9Z"
                      transform="translate(-10.244 -3.373)"/>
                <path id="_Compound_Path_8" data-name="&lt;Compound Path&gt;" class="cls-19"
                      d="M28.781,71.8c-0.018.091-.038,0.177-0.061,0.259a0.765,0.765,0,0,1-.1.216,0.45,0.45,0,0,1-.164.147,0.662,0.662,0,0,1-.522,0,0.443,0.443,0,0,1-.164-0.147,0.752,0.752,0,0,1-.1-0.216c-0.023-.082-0.043-0.168-0.061-0.259l-0.466-2.432c-0.009-.048-0.018-0.09-0.028-0.126a0.063,0.063,0,0,0-.032-0.054c-0.021,0-.031.021-0.033,0.064s0,0.077,0,.1l0.03,3.064H26.1V68.208a1.111,1.111,0,0,1,.1-0.511,0.709,0.709,0,0,1,.218-0.263,0.566,0.566,0,0,1,.247-0.1,1.709,1.709,0,0,1,.183-0.015,1.137,1.137,0,0,1,.206.021,0.535,0.535,0,0,1,.218.1,0.78,0.78,0,0,1,.2.248,1.686,1.686,0,0,1,.151.461L28.107,70.6c0,0.015.007,0.033,0.013,0.058s0.013,0.049.021,0.075a0.47,0.47,0,0,0,.028.068,0.028,0.028,0,1,0,.056,0,0.419,0.419,0,0,0,.028-0.068c0.008-.026.016-0.052,0.021-0.075s0.01-.043.013-0.058l0.488-2.445a1.554,1.554,0,0,1,.149-0.461,0.81,0.81,0,0,1,.2-0.248,0.54,0.54,0,0,1,.218-0.1,1.147,1.147,0,0,1,.209-0.021,0.749,0.749,0,0,1,.406.094,0.635,0.635,0,0,1,.223.23,0.794,0.794,0,0,1,.095.291,2.167,2.167,0,0,1,.02.27v4.208H29.312l0.034-3.064a0.431,0.431,0,0,0-.013-0.133,0.041,0.041,0,0,0-.026-0.032,0.047,0.047,0,0,0-.026.039c-0.009.026-.021,0.073-0.035,0.141Z"
                      transform="translate(-10.244 -3.373)"/>
                <path id="_Compound_Path_9" data-name="&lt;Compound Path&gt;" class="cls-19"
                      d="M31.9,68.59a0.417,0.417,0,0,0-.078.007,0.121,0.121,0,0,0-.073.064,0.268,0.268,0,0,0-.039.122c0,0.044,0,.089,0,0.137v3.5H30.728V68.107a1.622,1.622,0,0,1,.021-0.255,0.728,0.728,0,0,1,.1-0.256,0.361,0.361,0,0,1,.225-0.194,1.375,1.375,0,0,1,.229-0.021H33.19a0.926,0.926,0,0,1,.242.029,0.37,0.37,0,0,1,.2.187,0.718,0.718,0,0,1,.095.256,1.566,1.566,0,0,1,.021.255v4.309H32.775v-3.5c0-.043,0-0.087,0-0.133a0.278,0.278,0,0,0-.039-0.126,0.122,0.122,0,0,0-.071-0.064,0.41,0.41,0,0,0-.08-0.007H31.9Z"
                      transform="translate(-10.244 -3.373)"/>
                <path id="_Compound_Path_10" data-name="&lt;Compound Path&gt;" class="cls-19"
                      d="M35,67.842a0.777,0.777,0,0,1,.129-0.284A0.608,0.608,0,0,1,35.3,67.4a0.49,0.49,0,0,1,.186-0.065,1.225,1.225,0,0,1,.324,0A0.488,0.488,0,0,1,36,67.4a0.61,0.61,0,0,1,.175.158,0.785,0.785,0,0,1,.129.284l1.162,4.574H36.428L35.7,69.086a0.434,0.434,0,0,1-.02-0.072,0.052,0.052,0,0,0-.028-0.05,0.053,0.053,0,0,0-.028.05,0.489,0.489,0,0,1-.02.072l-0.73,3.33H33.837Z"
                      transform="translate(-10.244 -3.373)"/>
                <path id="_Compound_Path_11" data-name="&lt;Compound Path&gt;" class="cls-19"
                      d="M38.057,72.416a0.724,0.724,0,0,1-.188-0.025,0.342,0.342,0,0,1-.179-0.147,0.625,0.625,0,0,1-.121-0.3,2.981,2.981,0,0,1-.018-0.335V68.158a2.108,2.108,0,0,1,.021-0.295,0.681,0.681,0,0,1,.108-0.281,0.4,0.4,0,0,1,.186-0.165,0.525,0.525,0,0,1,.181-0.036H40.22V68.6H38.726a0.214,0.214,0,0,0-.084.019,0.156,0.156,0,0,0-.067.054,0.252,0.252,0,0,0-.041.122c0,0.048-.006.089-0.006,0.122V69.3h1.65v1.093h-1.65v0.547a0.436,0.436,0,0,0,.013.122,0.186,0.186,0,0,0,.03.065,0.108,0.108,0,0,0,.086.061c0.035,0,.068,0,0.1,0h1.477v1.223H38.057Z"
                      transform="translate(-10.244 -3.373)"/>
                <path id="_Compound_Path_12" data-name="&lt;Compound Path&gt;" class="cls-19"
                      d="M40.622,67.381H41.6v5.035H40.622V67.381Zm2.164,5.035L41.87,70.467c-0.038-.081-0.076-0.179-0.117-0.291a1,1,0,0,1-.06-0.335,1.038,1.038,0,0,1,.045-0.295,2.781,2.781,0,0,1,.093-0.266l0.812-1.9H43.8L42.75,69.46a1.145,1.145,0,0,0-.105.252,0.617,0.617,0,0,0-.02.122,0.577,0.577,0,0,0,.056.244c0.037,0.082.072,0.151,0.1,0.209l1.175,2.129H42.785Z"
                      transform="translate(-10.244 -3.373)"/>
                <path id="_Compound_Path_13" data-name="&lt;Compound Path&gt;" class="cls-19"
                      d="M44.91,72.416V68.633H43.83V67.381h3.135v1.252h-1.08v3.783H44.91Z"
                      transform="translate(-10.244 -3.373)"/>
            </g>
        </g>
    </g>
</svg>