<svg xmlns="http://www.w3.org/2000/svg" xmlns:xlink="http://www.w3.org/1999/xlink" version="1.0" id="Layer_1" x="0px" y="0px" viewBox="0 0 173 36" style="enable-background:new 0 0 173 36;" xml:space="preserve" role="img" aria-labelledby="svg-fwpff47hne-title"><title id="svg-fwpff47hne-title"></title><g id="text"><path class="promo-white" style="fill:#221F20;" d="M103.479,8.797c-0.56,1.072-1.766,1.765-3.071,1.765c-2.145,0-3.762-1.613-3.762-3.751 s1.618-3.749,3.762-3.749c1.289,0,2.485,0.678,3.047,1.727l0.1,0.188l0.963-0.553l-0.103-0.178 c-0.788-1.386-2.324-2.248-4.007-2.248c-2.766,0-4.851,2.07-4.851,4.814c0,2.745,2.086,4.814,4.851,4.814 c1.707,0,3.253-0.878,4.033-2.289l0.098-0.178l-0.962-0.552L103.479,8.797z M108.151,11.484h1.101V3.188h2.808V2.139h-6.716v1.049 h2.807 M114.776,3.188h2.156c1.118,0,1.9,0.792,1.9,1.924c0,1.109-0.799,1.913-1.9,1.913h-2.156 C114.776,7.026,114.776,3.188,114.776,3.188z M114.776,8.077h2.156c1.704,0,2.988-1.274,2.988-2.964 c0-1.696-1.284-2.975-2.988-2.975h-3.242v9.345h1.087C114.776,11.484,114.776,8.077,114.776,8.077z M126.055,10.562 c-2.089,0-3.724-1.647-3.724-3.75c0-2.104,1.636-3.75,3.724-3.75s3.724,1.646,3.724,3.75 C129.78,8.914,128.144,10.562,126.055,10.562 M130.869,6.812c0-2.699-2.115-4.814-4.814-4.814c-2.701,0-4.814,2.115-4.814,4.814 c0,2.698,2.114,4.813,4.814,4.813C128.754,11.625,130.869,9.51,130.869,6.812 M139.761,11.484V2.139h-0.914l-4.956,7.224V2.139 h-1.089v9.345h0.902l4.967-7.225v7.225 M149.607,11.484h1.09V2.139h-1.179l-3.074,5.091l-3.074-5.091h-1.165v9.345h1.089V4.082 l2.983,4.952h0.348l2.983-4.952 M101.656,17.367v7.245h-4.372c0.42-0.752,0.625-1.734,0.625-2.984v-4.261 C97.909,17.367,101.656,17.367,101.656,17.367z M102.746,16.316H96.82v5.297c0,1.356-0.264,2.338-0.807,2.998h-0.827v2.76h1.101 v-1.71h6.301v1.71h1.101v-2.76h-0.943C102.746,24.612,102.746,16.316,102.746,16.316z M106.554,21.666c0,2.689-0.831,3-1.456,3 c-0.077,0-0.157-0.005-0.24-0.015l-0.23-0.027v1.02l0.188,0.016c0.109,0.009,0.217,0.014,0.32,0.014 c1.711,0,2.508-1.27,2.508-3.996v-4.312h3.876v8.295h1.101v-9.345h-6.067C106.554,16.316,106.554,21.666,106.554,21.666z M117.505,17.367h2.653v3.582h-2.653c-0.963,0-1.747-0.801-1.747-1.785C115.758,18.172,116.542,17.367,117.505,17.367 M114.67,19.163c0,1.309,0.901,2.438,2.142,2.748l-2.582,3.751h1.264l2.527-3.663h2.137v3.663h1.089v-9.346h-3.742 C115.942,16.316,114.67,17.593,114.67,19.163 M137.583,16.316h-1.359l-3.507,3.848v-3.848h-1.101v3.848l-3.507-3.848h-1.361 l4.122,4.546l-4.239,4.8h1.353l3.632-4.092v4.092h1.101v-4.092l3.632,4.092h1.355l-4.24-4.8 M140.13,23.54v-7.224h-1.089v9.346 h0.903l4.967-7.226v7.226H146v-9.346h-0.915 M152.947,20.81c0.674-0.456,1.067-1.179,1.067-2.003c0-1.525-1.234-2.631-2.936-2.631 c-1.862,0-2.686,1.04-3.05,1.913l-0.07,0.168l0.927,0.527l0.086-0.222c0.347-0.887,1.054-1.337,2.107-1.337 c1.105,0,1.848,0.636,1.848,1.582c0,0.937-0.749,1.568-1.862,1.568h-0.921v1.05h1.213c1.147,0,1.888,0.65,1.888,1.657 c0,1.031-0.811,1.671-2.116,1.671c-1.552,0-2.103-0.813-2.291-1.495l-0.069-0.251l-0.968,0.527l0.056,0.165 c0.27,0.785,1.053,2.104,3.272,2.104c1.895,0,3.218-1.119,3.218-2.72C154.346,22.08,153.831,21.256,152.947,20.81 M162.062,20.336 h-4.782v-4.02h-1.089v9.345h1.089v-4.276h4.782v4.276h1.089v-9.345h-1.089"></path><path class="promo-white" style="fill:#221F20;" d="M171.64,16.317l-4.956,7.224v-7.224h-1.089v9.345h0.904l4.967-7.225v7.225h1.09v-9.345"></path></g><path class="promo-white" style="fill:#221F20;" d="M40.408,15.674c0.552-2.544,0.702-5.02,0.721-7.54h8.436v13.172H38.711 C39.495,19.283,39.984,17.632,40.408,15.674z M55.465,21.306V2.228H35.252V7.88c0,1.21,0,4.601-0.579,7.296 c-0.262,1.215-1.322,4.43-2.475,6.13h-2.269l-3.078,5.875h31.55v-5.875C58.401,21.306,55.465,21.306,55.465,21.306z"></path><path class="promo-white" style="fill:#221F20;" d="M17.623,21.306h5.878V2.228h-5.878 M17.614,21.323H5.875V2.228H0v24.97h14.524 M73.06,21.835 c-3.934,0-7.121-3.188-7.121-7.121c0-3.934,3.187-7.122,7.121-7.122c2.076,0,3.937,0.893,5.238,2.311l2.736-5.212 c-2.188-1.748-4.955-2.799-7.974-2.799c-7.081,0-12.822,5.741-12.822,12.822s5.741,12.821,12.822,12.821 c4.256,0,8.016-2.082,10.348-5.274l-4.599-3.356C77.512,20.679,75.424,21.835,73.06,21.835"></path><path style="fill:#ED2D23;" d="M20.759,35.995H9.898l7.725-14.689h10.86"></path><path style="fill:#00ADEF;" d="M86.65,14.691H75.785L83.497,0l10.859,0.002"></path></svg>